<svg width="300" height="333" fill="none" xmlns="http://www.w3.org/2000/svg"><path d="M84.99 184.47H0v122.907h84.99V184.47z" fill="#2B79E6"/><path d="M192.483 0h-84.99v307.377h84.99V0z" fill="#F6667B"/><path d="M300 119.855h-84.99v187.522H300V119.855z" fill="#2A589C"/><path d="M23.12 127.057c-5.686.812-19.254 32.691-15.215 40.003 4.04 7.311 26.347 15.808 26.347 15.808l-1.23-12.581s-15.259-6.587-14.051-10.539c1.207-3.952 10.012-19.189 10.012-19.189l-5.862-13.502zm38.006 0c5.686.812 19.277 32.691 15.215 40.003-4.062 7.311-26.347 15.808-26.347 15.808l1.208-12.581s15.369-6.587 14.051-10.539c-1.317-3.952-9.99-19.189-9.99-19.189l5.863-13.502z" fill="#F6667B"/><path d="M26.61 126.135h31.155a8.11 8.11 0 015.898 2.354 8.13 8.13 0 012.402 5.879s-5.928 24.283-6.016 32.406c0 4.391 1.405 17.806 1.405 17.806H22.922s1.778-13.941 1.756-18.618c0-7.948-6.367-31.594-6.367-31.594a8.124 8.124 0 018.3-8.233z" fill="#F6667B"/><path d="M46.196 132.216a3.602 3.602 0 01-3.799 3.074c-3.82-.198-4.084-3.118-4.084-3.118v-15.127h7.97l-.087 15.171z" fill="#FCA89E"/><path d="M52.057 116.386c0 5.445-4.39 13.547-9.858 13.547-5.466 0-9.836-8.102-9.836-13.547a9.88 9.88 0 0119.76 0h-.066z" fill="#FCA89E"/><path d="M68.325 156.763H16.093v31.133h52.232v-31.133z" fill="#2A589C"/><path d="M47.007 171.802a4.806 4.806 0 01-2.968 4.442 4.804 4.804 0 01-5.24-1.042 4.806 4.806 0 01.729-7.398 4.811 4.811 0 016.07.598 4.81 4.81 0 011.41 3.4z" fill="#0C5C9B"/><path d="M38.707 204.516c-1.1.862-2.33 1.544-3.644 2.02-2.788 1.163-8.321 3.359-7.487 5.774 1.098 3.249 5.006 3.008 7.597 2.196a50.189 50.189 0 0011.438-5.643l-7.904-4.347z" fill="#2B79E6"/><path d="M45.426 196.041c9.463-6.916 14.425-12.032 25.074-18.509 2.525-1.537 4.26-1.998 8.65-.263 3.755 1.471 3.36 7.904 1.317 10.582-6.125 8.058-29.727 19.168-34.514 20.858-2.041.725-9.309-5.401-6.367-8.343a52.475 52.475 0 015.84-4.325z" fill="#E6F9FF"/><path d="M41.037 209.368a31.599 31.599 0 005.006 5.138c3.206 2.481 5.423 3.315 8.036 2.195 3.798-1.756.307-5.489-2.635-8.409a40.6 40.6 0 00-7.465-6.169l-2.942 7.245z" fill="#2B79E6"/><path d="M32.538 118.296a37.298 37.298 0 004.391-7.794c1.098-3.249 1.735.198 6.39 3.733a46.882 46.882 0 008.584 4.171s1.405-6.169-.768-9.331c-5.182-7.509-15.743-7.004-18.97 1.757a8.78 8.78 0 00.373 7.464z" fill="#2A589C"/><path d="M41.518 200.279l4.062 3.359a9.217 9.217 0 012.196 2.459c1.317 2.459-3.25 7.465-6.192 4.523s-5.599-6.104-5.599-6.104l5.533-4.237z" fill="#F59762"/><path d="M29.464 205.548c-10.978-5.555-17.784-7.553-24.854-17.565a11.899 11.899 0 01-1.844-8.782c.878-2.569 4.61-4.084 9.001-3.052 3.689.878 28.433 20.287 32.297 23.932 1.669 1.58-3.403 9.462-7.553 8.101a40.634 40.634 0 01-7.047-2.634z" fill="#CDEEFC"/><path d="M271.809 108.526h-36.403v8.782a8.585 8.585 0 008.563 8.563h27.84a8.559 8.559 0 008.562-8.563v-.175a8.55 8.55 0 00-2.492-6.083 8.57 8.57 0 00-6.07-2.524z" fill="#6486CE"/><path d="M235.407 108.417h27.159l3.403-40.245a6.193 6.193 0 00-6.213-6.696H238.13a6.195 6.195 0 00-5.854 4.177 6.194 6.194 0 00-.316 2.52l3.447 40.244z" fill="#F6667B"/><path d="M247.285 63.979h4.215a2.547 2.547 0 002.371-2.679v-5.203a2.546 2.546 0 00-2.371-2.679h-4.215a2.55 2.55 0 00-2.394 2.678V61.3a2.549 2.549 0 002.394 2.679z" fill="#FCA89E"/><path d="M259.514 53.418c-1.69 5.73-6.586 4.852-12.229 3.162a10.827 10.827 0 016.126-20.77c5.752 1.69 7.794 11.877 6.103 17.608z" fill="#FCA89E"/><path d="M247.57 41.167s0 3.82-.527 3.82a3.71 3.71 0 00-3.952 1.054c-1.449 1.844.132 3.689 1.844 4.084 1.713.395.527 4.874-3.556 4.083-4.084-.79-5.533-10.407-3.426-14.095 2.108-3.688 8.783-7.794 11.22-7.53 2.437.263 22.46 6.344 22.46 6.344l-24.063 2.24z" fill="#2A589C"/><path d="M265.355 65.164l12.888 22.175-10.034 4.26-7.97-13.13 5.116-13.305zm-31.728-1.647l-17.015 24.525a3.755 3.755 0 001.581 4.94l24.634 12.295 3.425-5.796-16.774-13.02 13.173-13.173-9.024-9.77z" fill="#61B3DB"/><path d="M232.222 87.243l-.398.41 14.473 14.059.398-.41-14.473-14.059zm-4.38 10.24l-.266.505 16.54 8.691.266-.505-16.54-8.69z" fill="#FFBA57"/><path d="M284.39 105.123h-42.396v3.601h42.396v-3.601z" fill="#CDEEFC"/><path d="M235.407 108.417h27.159l3.403-40.245a6.193 6.193 0 00-6.213-6.696H238.13a6.195 6.195 0 00-5.854 4.177 6.194 6.194 0 00-.316 2.52l3.447 40.244z" fill="#61B3DB"/><path d="M257.999 63.452a8.935 8.935 0 11-8.936-8.936 8.957 8.957 0 018.936 8.936zm-15.632 41.759h10.802l.791-4.742h-8.168a3.14 3.14 0 00-3.096 2.612l-.329 2.13z" fill="#FCA89E"/><path d="M250.313 105.255h34.054l4.676-21.077H254.99l-4.677 21.077z" fill="#CDEEFC"/><path d="M268.101 95.287a2.19 2.19 0 001.355 2.028 2.197 2.197 0 002.869-2.868 2.202 2.202 0 00-2.029-1.356 2.193 2.193 0 00-2.195 2.196z" fill="#8CB3DE"/><path d="M279.845 115.267l4.391 49.905h-6.586s-10.539-32.495-11.615-43.033c-1.076-10.539 6.587-8.782 6.587-8.782l7.223 1.91zm-20.837 0l4.391 49.905h-6.586s-10.539-32.495-11.615-43.033c-1.076-10.539 6.587-8.782 6.587-8.782l7.223 1.91z" fill="#FCA89E"/><path d="M263.489 165.172h-6.455v4.961h13.173c.857 0 1.164-1.932.396-2.349l-7.114-2.612zm20.549 0h-6.476v4.961h13.173c.878 0 1.163-1.932.417-2.349l-7.114-2.612z" fill="#F6667B"/><path d="M240.918 109.932l33.855.197a8.15 8.15 0 015.138 4.567c1.142 3.425 3.798 19.584 3.798 19.584h-37.126l-2.437-12.163-3.228-12.185z" fill="#6486CE"/><path d="M183.109 250.403h-42.287l1.12 76.691h8.036s6.125-38.576 8.431-59.917h5.598l1.669 59.917h8.08s9.528-60.159 9.287-71.751c.12-1.644.142-3.294.066-4.94z" fill="#2A589C"/><path d="M183.108 250.403h-42.286l-5.269-47.688c-.483-3.886 3.952-7.223 9.572-7.223h33.68c5.621 0 10.056 3.337 9.573 7.223l-5.27 47.688z" fill="#2B79E6"/><path d="M167.191 195.184v-7.025c0-1.603-2.371-1.471-3.798-1.471h-4.633c-1.405 0-3.798 1.295-3.798 2.898v5.598c-.396.527 1.229 5.797 5.532 5.489 7.465-.527 6.697-4.962 6.697-5.489z" fill="#FCA89E"/><path d="M151.099 186.688c1.844 6.191 7.004 5.247 13.173 3.403a11.675 11.675 0 007.284-5.534 11.68 11.68 0 00-13.871-16.861c-6.191 1.823-8.409 12.8-6.586 18.992z" fill="#FCA89E"/><path d="M163.962 173.471s0 4.127.571 4.127a4.042 4.042 0 014.391 1.12c1.559 1.998-.154 3.996-1.998 4.391s-.571 5.269 3.842 4.391c4.413-.878 5.972-11.241 3.689-15.215-2.283-3.974-9.529-8.387-12.076-8.102-2.546.286-19.452 9.375-19.452 9.375l21.033-.087z" fill="#112256"/><path d="M146.312 212.332l-28.783-10.122a6.231 6.231 0 01-3.382-7.091c1.801-5.336 16.599-22.153 16.599-22.153l5.555 4.391-9.551 15.676s16.62 2.459 22.153 3.074c2.481.285.329 10.472.329 10.472l-2.92 5.753z" fill="#2B79E6"/><path d="M173.843 326.984h-8.146v5.357h14.118c.944 0 1.273-2.196.439-2.547l-6.411-2.81zm-31.988 0h8.124v5.357h-14.117c-.945 0-1.252-2.196-.44-2.547l6.433-2.81z" fill="#112256"/><path d="M130.769 172.988l11.065-8.322 1.757 1.954-7.29 10.671-5.532-4.303z" fill="#FCA89E"/><path d="M178.807 195.492c7.004.856 7.948 1.164 12.558 8.782 4.611 7.619 11.351 21.209 10.978 23.69-.615 5.533-33.526 23.668-33.526 23.668l-1.537-10.451 21.956-16.313-10.978-17.827.549-11.549z" fill="#2B79E6"/><path d="M186.29 226.509l-15.71 12.452.382.481 15.709-12.451-.381-.482zm2.186 14.112l-18.298 8.606.261.556 18.298-8.606-.261-.556z" fill="#BBB"/><path d="M171.385 221.905h-22.154v33.218h22.154v-33.218z" fill="#fff"/><path d="M171.364 238.503l.308 10.319-7.224-3.249.769-8.299 6.147 1.229z" fill="#FCA89E"/><path d="M242.193 42.352c-2.195-3.38-13.854-12.602-25.359-2.502-10.165 8.913-4.215 15.72-4.5 18.244-.286 2.525-5.05 5.6-5.314 10.386-.263 4.786 10.737 6.586 12.054-3.93.571-4.392 7.75-3.58 13.986-8.783a40.746 40.746 0 009.133-13.415z" fill="#2A589C"/></svg>