<svg width="300" height="183" fill="none" xmlns="http://www.w3.org/2000/svg"><path d="M1.785 0v156.361h281.82V23.753L261.05 0H1.785z" fill="#D6EDFF"/><path d="M260.089.03V23.8h23.395L260.089.03z" fill="#91C1F1"/><path d="M250.185 8.431h-85.262v2.714h85.262V8.43zm24.447 108.215H164.923v1.357h109.709v-1.357zm0 4.132H164.923v1.357h109.709v-1.357zm-19.549 4.147h-90.16v1.356h90.16v-1.356zm19.549 9.65H164.923v1.357h109.709v-1.357zm-69.314 4.147h-40.395v1.357h40.395v-1.357zm69.314-109.511h-28.659v1.357h28.659V29.21zm0 5.031h-28.659V35.6h28.659v-1.357zm0 5.016h-28.659v1.357h28.659v-1.357zm0 5.032h-28.659v1.356h28.659V44.29zm-10.423 5.015h-18.236v1.357h18.236v-1.357zm10.423 26.315h-28.659v1.356h28.659V75.62zm0 5.015h-28.659v1.357h28.659v-1.357zm0 5.031h-28.659v1.357h28.659v-1.356zm-8.591 5.031h-20.068v1.357h20.068v-1.357zm-33.895-76.274h-67.223v2.713h67.223v-2.713z" fill="#fff"/><path d="M174.827 37.246h-9.904v18.95h9.904v-18.95zm12.452-7.349h-9.904v26.3h9.904v-26.3zm12.468 4.635h-9.904v21.664h9.904V34.532zM212.2 24.195h-9.904v32.001h9.904v-32zm12.452 3.217h-9.904v28.77h9.904v-28.77zm12.453 4.406h-9.904v24.363h9.904V31.818z" fill="#FF9F9F"/><path d="M184.212 74.933h-19.289v27.839h19.289V74.933zm52.634 0h-19.289v27.839h19.289V74.933zm-26.308 0h-19.29v27.839h19.29V74.933z" fill="#fff"/><path d="M112.154 87.872c7.78-25.359-6.49-52.217-31.874-59.99-25.383-7.772-52.268 6.485-60.048 31.844-7.78 25.359 6.491 52.217 31.874 59.989 25.384 7.772 52.268-6.484 60.048-31.843z" fill="#6486CE"/><path d="M82.636 28.647a48.162 48.162 0 00-29.27-1.159l12.82 46.287 16.45-45.128z" fill="#fff"/><path d="M53.367 27.488a48.159 48.159 0 00-20.102 11.36A48.095 48.095 0 0020.77 58.255l45.493 15.52-12.896-46.286z" fill="#FF9F9F"/><path d="M20.647 58.361a47.95 47.95 0 00-.326 29.96 47.995 47.995 0 0017.525 24.315l28.339-38.8L20.647 58.36z" fill="#F6667B"/><path d="M60.326 121.433a47.91 47.91 0 0033.787-8.583L66.186 73.775l-5.86 47.658z" fill="#2A589C"/><path d="M66.185 73.775l-28.4 38.755a47.766 47.766 0 0022.662 8.918l5.738-47.673z" fill="#fff"/><path d="M270.283 88.823c1.816 1.006 3.205 5.671 4.304 14.803 1.099 9.132.87 10.672.351 11.74-.519 1.067-9.157 13.157-9.157 13.157l-4.7-.534 5.921-17.456s-4.761-11.389-2.762-21.848c.336-1.54 6.043.138 6.043.138z" fill="#7DA4EA"/><path d="M280.08 64.886a10.69 10.69 0 016.827 1.27 10.67 10.67 0 014.603 5.194 19.573 19.573 0 011.298 8.66c-.077 1.266 1.526 13.538.228 13.538l-9.003-8.766-3.953-19.896z" fill="#7F4D4E"/><path d="M292.959 124.025h-25.607l.686 54.641h4.899s3.693-33.068 5.097-48.268h3.388l1.022 48.268h4.884s5.768-42.856 5.616-51.119c.073-1.173.079-2.349.015-3.522z" fill="#29266B"/><path d="M292.961 124.025h-25.607l3.525-13.066-6.715-20.917c-.29-2.775 2.396-5.153 5.799-5.153h20.388c3.419 0 6.105 2.378 5.815 5.153l-7.264 20.917 4.059 13.066z" fill="#6486CE"/><path d="M280.034 88.487c4.578 0 4.578-3.05 4.578-3.827v-5c0-1.144-1.694-1.052-2.701-1.052h-3.235c-1.007 0-2.701.93-2.701 2.058v3.994a3.834 3.834 0 002.525 3.6 3.854 3.854 0 001.534.227z" fill="#FCA89E"/><path d="M273.076 78.608c1.297 4.406 4.991 3.735 9.401 2.424a8.328 8.328 0 004.807-4.036 8.315 8.315 0 00.623-6.242 8.326 8.326 0 00-3.915-4.904 8.342 8.342 0 00-6.231-.78c-4.41 1.31-5.997 9.132-4.685 13.538z" fill="#FCA89E"/><path d="M282.247 69.186s0 2.942.412 2.942a2.856 2.856 0 013.052.808c1.114 1.418.809 2.927-.519 3.232-1.327.305-.442 12.197 2.701 11.526 3.144-.67 3.404-16.48 1.786-19.316-1.618-2.836-6.806-5.977-8.638-5.779-1.831.199-13.856 6.678-13.856 6.678l15.062-.091z" fill="#7F4D4E"/><path d="M267.993 178.59h4.975v3.811H262.88c-.671 0-.9-1.524-.32-1.814l5.433-1.997zm14.591 0h4.975v3.811h-10.088c-.656 0-.885-1.524-.305-1.814l5.418-1.997z" fill="#FF645F"/><path d="M289.833 128.507l-4.578-1.906s-1.358 3.98.885 5.382c2.839 1.738 3.693-3.476 3.693-3.476z" fill="#FCA89E"/><path d="M294.914 86.718c1.831 1.022 3.205 6.266 4.303 15.399 1.099 9.132.87 10.672.351 11.739-.518 1.067-9.736 14.682-9.736 14.682l-4.578-1.906 8.119-15.612s-2.335-12.425-1.984-16.572a13.057 13.057 0 013.525-7.73z" fill="#7DA4EA"/><path d="M261.127 127.989l4.685.503s-.29 4.193-2.9 4.574c-3.266.564-1.785-5.077-1.785-5.077z" fill="#FCA89E"/><path d="M281.346 66.152c1.389 0 4.045-4.147 1.618-6.464a3.755 3.755 0 00-6.104 2.195c-.244 4.04 1.48 4.269 4.486 4.269z" fill="#7F4D4E"/><path d="M62.401 84.02a2.94 2.94 0 001.808 2.73 2.948 2.948 0 004.025-2.135 2.94 2.94 0 00-2.887-3.522 2.933 2.933 0 00-2.721 1.803 2.925 2.925 0 00-.225 1.124zm1.053 0a1.89 1.89 0 012.262-1.854 1.893 1.893 0 011.379 2.578 1.89 1.89 0 01-1.748 1.166 1.877 1.877 0 01-1.847-1.89h-.046z" fill="#0F2337"/><path d="M65.59 79.172h-9.737L57.7 88.03h6.028l1.862-8.858z" fill="#0F2337"/><path d="M70.504 87.969c.717-1.083 1.038-4.01.153-4.574-.885-.564-3.281-2.15-4.075-.229L65.56 87.04l4.028 2.271.916-1.341z" fill="#FCA89E"/><path d="M18.633 122.333h26.386l-.718 56.303h-5.035s-3.816-28.327-5.25-43.985H30.52l-1.038 43.985h-5.051s-5.936-44.213-5.784-52.675a36.133 36.133 0 01-.015-3.628z" fill="#F6667B"/><path d="M18.633 122.333h26.386l3.28-35.066c.306-2.85-2.456-5.305-5.966-5.305H21.319c-3.51 0-6.273 2.454-5.983 5.305l3.297 35.066z" fill="#29266B"/><path d="M31.955 85.728c-4.685 0-4.654-3.172-4.654-3.934v-5.168c0-1.159 1.755-1.068 2.793-1.068h3.342c1.037 0 2.792.946 2.792 2.12v4.116a3.976 3.976 0 01-2.67 3.722c-.514.18-1.06.251-1.603.212z" fill="#FCA89E"/><path d="M39.083 75.558c-1.343 4.574-5.143 3.842-9.69 2.5a8.595 8.595 0 01-5.351-4.074 8.578 8.578 0 013.51-11.862 8.598 8.598 0 016.709-.514c4.593 1.342 6.21 9.407 4.822 13.95z" fill="#FCA89E"/><path d="M29.666 65.847s0 3.049-.412 3.049a2.933 2.933 0 00-3.128.838c-1.16 1.525.092 2.913 1.526 3.233 1.435.32.427 3.857-2.823 3.232s-4.38-8.248-2.717-11.175c1.664-2.928 7.005-6.099 8.897-5.946 1.893.152 14.285 6.876 14.285 6.876l-15.627-.107z" fill="#7F4D4E"/><path d="M48.437 86.2l6.73 12.929 10.392-12.044c0-.443 4.823 1.356 4.228 2.408-.977 1.708-7.63 15.368-12.972 20.933-2.945 3.049-11.583-8.248-12.056-9.026-.748-1.25-1.77-8.995-1.908-13.325a1.905 1.905 0 011.71-1.951l1.526-2.805c.9-.076 2.045 2.073 2.35 2.881zM17.52 83.181S5.31 96.171 1.006 100.273c-2.365 2.256 0 3.949 1.358 5.641 3.77 4.696 15.948 13.096 15.948 13.096l-.687-7.12-7.34-8.568s10.331-7.973 10.682-8.553c.93-1.524.153-8.461.153-8.461l-3.602-3.126z" fill="#29266B"/><path d="M44.379 178.559H39.25v3.934h10.393c.686 0 .93-1.525.32-1.876l-5.585-2.058zm-15.047 0h-5.128v3.934h10.393c.686 0 .915-1.525.32-1.876l-5.585-2.058z" fill="#0F2337"/><path d="M20.341 118.735a2.333 2.333 0 001.953-2.699l-.426-4.131c0-.793-1.298-.565-2.091-.519l-2.152.564.687 7.12s1.51-.335 2.03-.335z" fill="#FCA89E"/><path d="M88.314 93.03l-.32-.305 20.418-20.399 12.132 12.12 18.145-18.127L148.365 76l19.015-19.224.32.304-19.335 19.546-9.676-9.666-18.145 18.112-12.132-12.105L88.314 93.03z" fill="#FF645F"/><path d="M100.248 90.5c-1.343.441-5.646 3.262-6.531 5.64-.885 2.379-6.974 14.819-6.684 16.771.29 1.951 18.312 13.721 18.312 13.721l2.671-5.931s-12.453-8.293-12.01-9.483c.442-1.189 7.63-13.203 7.63-13.203l-3.388-7.516z" fill="#F6667B"/><path d="M100.522 132.166h21.746l-.58 46.409h-4.151s-3.143-23.342-4.334-36.255h-2.869l-.869 36.255h-4.151s-4.899-36.392-4.777-43.421a28.096 28.096 0 01-.015-2.988z" fill="#FCA89E"/><path d="M101.179 117.302h20.312l1.358-24.73a3.826 3.826 0 00-1.291-2.8 3.846 3.846 0 00-2.936-.95h-15.993c-2.488 0-4.44 1.738-4.227 3.75l2.777 24.73z" fill="#F6667B"/><path d="M112.41 90.515h-2.793a1.676 1.676 0 01-1.526-1.784v-3.446a1.673 1.673 0 011.526-1.768h2.793a1.693 1.693 0 011.526 1.768v3.446a1.693 1.693 0 01-1.526 1.784z" fill="#FCA89E"/><path d="M122.344 178.514h-4.7v3.598h9.538c.625 0 .839-1.418.289-1.708l-5.127-1.89zm-12.437 0h-4.7v3.598h9.523c.641 0 .854-1.418.305-1.708l-5.128-1.89z" fill="#91C1F1"/><path d="M121.491 117.027h-20.312s-4.471 2.104-5.005 8.904c-.977 12.425 6.821 34.272 6.821 34.272h19.152s6.364-26.07 4.96-34.272a12.398 12.398 0 00-5.616-8.904z" fill="#29266B"/><path d="M94.52 130.206h34.932l-7.908-17.43H99.299l-4.779 17.43z" fill="#F6667B"/><path d="M112.777 71.229a8.707 8.707 0 00-5.859.572 8.694 8.694 0 00-4.152 4.17c-2.076 3.856 1.526 5.122.366 8.384-1.16 3.263-5.707 2.516-6.303 6.968-.595 4.452 3.419 4.07 4.228 8.004.473 2.287-2.152 3.811-3.053 7.043-2.517 9.148 12.911 13.478 14.544 3.553 1.633-9.925-.443-9.925-3.571-14.225-2.793-3.872-.732-7.623 3.418-10.23 4.151-2.607 5.861-12.47.382-14.24z" fill="#fff"/><path d="M142.855 72.997l4.136-7.257.778.503-1.266 3.05s2.945.655 2.747 2.606c-.107 1.052-3.693 3.278-3.693 3.278l-2.702-2.18z" fill="#FCA89E"/><path d="M115.677 89.02s13.231-2.027 14.772-2.408c1.541-.381 12.377-13.721 12.377-13.721l3.189 1.661s-9.156 17.228-11.11 17.99c-1.953.763-16.085 4.727-16.085 4.727l-3.143-8.248z" fill="#F6667B"/></svg>