<svg width="300" height="286" fill="none" xmlns="http://www.w3.org/2000/svg"><path d="M151.817 197.736h-3.636v86.522h3.636v-86.522zm-63.648 86.522h-3.615l38.321-86.522h3.637l-38.343 86.522zm123.193 0h3.637l-38.343-86.522h-3.636l38.342 86.522z" fill="#FF9F9F"/><path d="M290.239 0H9.761C4.371 0 0 4.363 0 9.746v182.491c0 5.382 4.37 9.746 9.761 9.746H290.24c5.391 0 9.761-4.364 9.761-9.746V9.746C300 4.363 295.63 0 290.239 0z" fill="#D6EDFF"/><path d="M106.712 118.922H80.746v22.591h25.966v-22.591z" fill="#8CB3DE"/><path d="M132.488 101.363h-25.966v40.15h25.966v-40.15z" fill="#2B79E6"/><path d="M158.239 82.806h-25.966v58.707h25.966V82.806z" fill="#61B3DB"/><path d="M184.014 64.758h-25.966v76.755h25.966V64.758z" fill="#29266B"/><path d="M209.768 46.562h-25.966v94.951h25.966v-94.95z" fill="#F6667B"/><path d="M176.403 114.437l-2.185 1.047 15.73 32.735 2.185-1.047-15.73-32.735z" fill="#61B3DB"/><path d="M194.667 155.123c-1.552-1.571-7.613-9.745-2.445-12.166 5.167-2.42 8.782 10.616 8.782 10.616l-6.337 1.55z" fill="#FCA89E"/><path d="M266.526 201.197h-37.024l.978 79.005h7.082s5.338-39.746 7.358-61.722h4.912l4.977 28.897 20.67 22.039 5.402-4.734-15.695-23.823s1.404-29.428 1.319-34.524c.104-1.711.111-3.426.021-5.138z" fill="#F6667B"/><path d="M266.526 201.197h-37.024l-4.636-49.131c-.404-3.992 3.466-7.432 8.4-7.432h29.453c4.934 0 8.805 3.44 8.507 7.432l-4.7 49.131z" fill="#29266B"/><path d="M247.834 149.836c6.571 0 6.528-4.458 6.528-5.52v-7.261c0-1.635-2.467-1.487-3.913-1.487h-4.742c-1.467 0-3.913 1.317-3.913 2.973v5.775a5.558 5.558 0 003.773 5.242c.728.248 1.5.343 2.267.278z" fill="#FCA89E"/><path d="M224.673 150.494l-9.442 18.175-14.588-16.986c0-.615-6.784 1.911-5.933 3.398 1.382 2.399 10.803 21.55 18.203 29.364 4.126 4.374 16.269-11.572 17.013-12.74 1.063-1.762 2.488-12.739 2.68-18.684a2.68 2.68 0 00-2.403-2.739l-2.127-3.928c-1.34-.021-2.977 2.994-3.403 4.14zm43.427-4.246s17.14 18.239 23.18 23.971c3.317 3.185 0 5.563-1.914 7.92-5.274 6.603-22.372 18.387-22.372 18.387l.936-9.979 10.335-12.039s-14.525-11.189-15.014-11.996c-1.318-2.123-.212-11.869-.212-11.869l5.061-4.395zm-37.725 133.848h7.21v5.521h-14.589c-.978 0-1.297-2.124-.468-2.633l7.847-2.888z" fill="#29266B"/><path d="M243.77 119.049c-5.55-.658-7.103 3.652-8.038 11.933-.809 7.24.106 10.85 6.805 10.934 6.699.085 16.672-3.63 15.758-12.59-.915-8.96-14.525-10.277-14.525-10.277z" fill="#FFBBB6"/><path d="M275.479 269.416l5.402-4.734 3.636 4.14-10.952 9.618c-.723.637-2.403-.764-2.126-1.677l4.04-7.347z" fill="#29266B"/><path d="M241.603 112.106c2.871-2.314 5.55 1.423 8.74 2.527 3.19 1.104 8.634-1.805 11.654 1.359 3.02 3.164-.638 8.875-.787 11.083-.149 2.208 1.446 7.41-.468 10.468-1.914 3.057-6.125 4.352-10.952 2.123-3.169-1.507.787-6.497 1.425-9.194.638-2.696.149-6.03-3.658-3.248-1.722 1.253-4.763 2.696-4.53-1.592.319-5.436-7.698-8.451-1.424-13.526z" fill="#7F4D4E"/></svg>