<svg width="300" height="300" fill="none" xmlns="http://www.w3.org/2000/svg"><path d="M100.617 168.834a53.119 53.119 0 013.147-44.453 53.023 53.023 0 0115.04-17.136 52.916 52.916 0 0120.837-9.22V0a150.057 150.057 0 00-69.507 22.793 150.358 150.358 0 00-50.523 52.965A150.648 150.648 0 00.047 146.343a150.66 150.66 0 0016.031 71.472l84.539-48.981zm60.014-70.768a52.79 52.79 0 0130.048 17.918l84.662-48.96a150.038 150.038 0 00-49.542-46.927A149.768 149.768 0 00160.631 0v98.066zm40.114 36.454a53.8 53.8 0 012.3 15.511 53.075 53.075 0 01-9.08 29.678 52.953 52.953 0 01-24.113 19.5 52.85 52.85 0 01-30.88 2.634 52.91 52.91 0 01-27.059-15.132l-85.072 49.208a150.175 150.175 0 0090.699 60.566 149.974 149.974 0 00107.705-16.832c32.53-18.923 56.785-49.385 67.967-85.361a150.643 150.643 0 00-7.58-108.919l-84.887 49.147z" fill="#FF9F9F"/><path d="M100.617 168.834a53.119 53.119 0 013.147-44.453 53.023 53.023 0 0115.04-17.136 52.916 52.916 0 0120.837-9.22V0a150.057 150.057 0 00-69.507 22.793 150.358 150.358 0 00-50.523 52.965A150.648 150.648 0 00.047 146.343a150.66 150.66 0 0016.031 71.472l84.539-48.981z" fill="#F6667B"/><path d="M160.631 98.066a52.79 52.79 0 0130.048 17.918l84.662-48.96a150.038 150.038 0 00-49.542-46.927A149.768 149.768 0 00160.631 0v98.066z" fill="#2A589C"/><path d="M200.745 134.52a53.8 53.8 0 012.3 15.511 53.075 53.075 0 01-9.08 29.678 52.953 52.953 0 01-24.113 19.5 52.85 52.85 0 01-30.88 2.634 52.91 52.91 0 01-27.059-15.132l-85.072 49.208a150.175 150.175 0 0090.699 60.566 149.974 149.974 0 00107.705-16.832c32.53-18.923 56.785-49.385 67.967-85.361a150.643 150.643 0 00-7.58-108.919l-84.887 49.147z" fill="#D6EDFF"/><path d="M133.951 182.987h39.743v9.566a9.392 9.392 0 01-2.751 6.62 9.357 9.357 0 01-6.615 2.74h-30.377a9.337 9.337 0 01-6.608-2.741 9.37 9.37 0 01-2.738-6.619v-.206c0-2.482.985-4.863 2.738-6.618a9.333 9.333 0 016.608-2.742z" fill="#6486CE"/><path d="M173.694 182.884h-29.617l-3.697-44.003a6.778 6.778 0 014.009-6.749 6.767 6.767 0 012.707-.575h23.6a6.764 6.764 0 014.972 2.182 6.782 6.782 0 011.765 5.142l-3.739 44.003z" fill="#F6667B"/><path d="M160.736 134.293h-4.601a2.75 2.75 0 01-2.443-1.853 2.767 2.767 0 01-.145-1.068v-5.739a2.767 2.767 0 01.689-1.999 2.75 2.75 0 011.899-.923h4.601a2.756 2.756 0 012.588 2.922v5.678c.031.367-.012.736-.127 1.086a2.749 2.749 0 01-2.461 1.896z" fill="#FCA89E"/><path d="M147.384 122.753c1.848 6.274 7.086 5.307 13.35 3.456a11.82 11.82 0 009.102-10.118 11.858 11.858 0 00-2.676-9.017 11.815 11.815 0 00-8.4-4.21 11.786 11.786 0 00-4.742.716c-6.244 1.789-8.483 12.919-6.634 19.173z" fill="#FCA89E"/><path d="M160.509 109.36s0 4.115.575 4.115a4.099 4.099 0 014.313 1.152c1.582 2.057-.144 4.114-2.054 4.484-1.91.371-.575 5.329 3.882 4.464 4.457-.864 6.039-11.396 3.738-15.428-2.3-4.033-9.633-8.497-12.22-8.23-2.588.268-24.647 6.934-24.647 6.934l26.413 2.509z" fill="#DA3F3A"/><path d="M141.016 135.61l-14.069 24.234 10.947 4.649 8.73-14.339-5.608-14.544zm34.609-1.749l18.485 26.744a4.117 4.117 0 01-1.726 5.41l-26.885 13.434-3.738-6.337 18.321-14.235-14.378-14.401 9.921-10.615z" fill="#F6667B"/><path d="M177.067 159.752l-15.785 15.375.43.442 15.785-15.374-.43-.443zm4.838 11.016l-18.054 9.503.286.546 18.055-9.502-.287-.547z" fill="#FFBA57"/><path d="M166.525 179.264h-46.274v3.929h46.274v-3.929z" fill="#2A589C"/><path d="M149.027 133.738c0 1.933.573 3.824 1.646 5.431a9.763 9.763 0 004.382 3.599 9.741 9.741 0 0010.634-2.128 9.785 9.785 0 002.102-10.656 9.75 9.75 0 00-9.028-6.018 9.75 9.75 0 00-6.885 2.87 9.776 9.776 0 00-2.851 6.902zm17.047 45.629h-11.728l-.863-5.185h8.914a3.433 3.433 0 013.369 2.86l.308 2.325z" fill="#FCA89E"/><path d="M157.427 179.428h-37.155l-5.093-23.04h37.155l5.093 23.04z" fill="#2A589C"/><path d="M138.018 168.525a2.449 2.449 0 01-2.921 2.401 2.442 2.442 0 01-1.92-1.923 2.456 2.456 0 011.039-2.514 2.442 2.442 0 013.802 2.036z" fill="#FF9F9F"/><path d="M125.182 190.372l-4.888 54.577h7.189s11.522-35.527 12.672-47.068c1.15-11.541-7.188-9.504-7.188-9.504l-7.785 1.995zm22.736 0l-4.889 54.577h7.21s11.522-35.527 12.672-47.068c1.15-11.541-7.189-9.504-7.189-9.504l-7.804 1.995z" fill="#FCA89E"/><path d="M143.031 244.949h7.045v5.411h-14.378c-.945 0-1.273-2.057-.452-2.592l7.785-2.819zm-22.41 0h7.024v5.411h-14.377c-.945 0-1.274-2.057-.452-2.592l7.805-2.819z" fill="#F6667B"/><path d="M167.677 184.55l-36.97.206a8.87 8.87 0 00-5.607 4.979c-1.232 3.744-4.108 21.415-4.108 21.415h40.462l2.711-13.31 3.512-13.29z" fill="#6486CE"/><path d="M165.232 109.71c-6.305-2.942-1.828-19.379 8.093-21.354 8.215-1.625 15.404 4.855 12.159 12.981-3.245 8.126-16.206 10.265-20.252 8.373z" fill="#DA3F3A"/></svg>