<svg width="587" height="401" fill="none" xmlns="http://www.w3.org/2000/svg"><path d="M86.626 220c-3.041-6.372-6.145-13.046-5.98-20.111.163-6.536-.09-13.803 1.614-20.124a52.992 52.992 0 001.262-19.468c-2.208-20.402-10.826-19.14-14.03-17.954-3.205 1.186-4.92 4.264-5.665 9.513-.58 4.214.24 24.338-5.892 20.717-7.104-4.189-4.656-24.855-5.047-31.87-.669-10.485-3.722-21.954-10.85-29.953-3.508-3.936-8.958-7.128-13.88-5.311a12.262 12.262 0 00-6.421 6.636c-4 8.643-1.88 18.282.757 26.975 1.11 3.634 11.355 20.994 1.653 18.395-2.322-.63-20.377-18.117-23.972-2.346-1.262 5.551 4.416 11.986 13.638 20.262 5.766 5.173 27.619 19.367 25.802 25.474-1.817 6.106-13.576-5.186-13.273 6.561.164 6.586 8.189 12.15 13.715 15.216 2.637 1.451 5.551 2.384 8.074 3.999 3.003 1.93 6.473 6.195 3.66 9.69-1.262 1.539-3.357 2.145-4.543 3.709a5.603 5.603 0 00-.24 5.678 13.09 13.09 0 003.975 4.391c10.093 7.771 23.58 10.282 36.286 9.122 12.705-1.161 24.881-5.678 36.589-10.788" fill="#E6F3FF"/><path opacity=".25" d="M33.117 116.907s5.943 69.216 42.62 115.823M9.625 159.653s21.108 20.364 39.755 24.944m22.736-33.435c.088 10.8-2.107 40.664-13.715 53.975m-23.883 5.375s8.213 8.756 35.832 14.863m-17.878 17.083s14.168 4.062 27.757-2.145" stroke="#fff" stroke-width="1.564" stroke-linecap="round" stroke-linejoin="round"/><path d="M507.928 105.3c2.763-5.804 5.589-11.873 5.425-18.295-.138-5.942.089-12.553-1.463-18.294a48.051 48.051 0 01-1.186-17.664c2.019-18.56 9.841-17.411 12.768-16.402 2.927 1.01 4.479 3.886 5.148 8.655.53 3.786-.227 22.13 5.362 18.838 6.46-3.786 4.227-22.597 4.63-29.02.606-9.55 3.382-19.972 9.867-27.24 3.192-3.595 8.138-6.497 12.617-4.844a11.102 11.102 0 015.841 6.043c3.634 7.848 1.704 16.63-.694 24.528-.996 3.305-10.333 19.089-1.501 16.717 2.107-.555 18.534-16.465 21.815-2.12 1.16 5.047-4.013 10.901-12.403 18.421-5.248 4.706-25.107 17.664-23.455 23.165 1.653 5.5 12.327-4.72 12.062 5.967-.151 5.98-7.456 11.053-12.478 13.879-2.384 1.325-5.047 2.157-7.33 3.634-2.738 1.753-5.892 5.639-3.331 8.831 1.123 1.388 3.053 1.943 4.126 3.369a5.05 5.05 0 01.214 5.16 11.598 11.598 0 01-3.608 3.987c-9.211 7.078-21.449 9.362-33.006 8.302-11.557-1.06-22.622-5.16-33.271-9.803" fill="#E6F3FF"/><path opacity=".25" d="M556.579 11.544s-5.413 62.945-38.797 105.351m60.107-66.479s-19.19 18.522-36.148 22.71m-20.628-30.431c-.076 9.816 1.918 36.98 12.465 49.08m21.727 4.882s-7.469 7.974-32.577 13.525m16.25 15.532s-12.881 3.696-25.233-1.943" stroke="#fff" stroke-width="1.426" stroke-linecap="round" stroke-linejoin="round"/><path opacity=".5" d="M408.003 389.874c3.785-1.413 6.182-3.256 6.396-5.64.404-4.227-9.096-4.239-16.402-3.47 9.678-5.501 18.118-12.617 14.926-19.758-6.674-14.913-28.426 1.527-35.781 11.065 0 0 32.804-41.244 12.389-48.827-18.269-6.775-25.889 37.724-26.609 42.203.669-4.277 6.309-44.386-14.711-42.481-22.079 2.006-18.484 69.999-18.484 69.999s36.716 2.687 61.823.176l-25.738 6.864h65.847c3.659-11.343-11.935-11.494-23.656-10.131zm-149.107-66.87c-22.483-2.044-16.402 40.904-15.745 45.484-.77-4.807-8.933-52.448-28.489-45.194-21.903 8.113 13.273 52.285 13.273 52.285-7.899-10.207-28.212-25.31-35.328-9.324-3.116 6.964 3.571 13.449 12.1 18.547-5.451-1.262-11.065-1.906-12.869.302-2.208 2.688-1.477 5.577 1.665 7.999-9.362-2.334-35.794-7.746-31.075 6.839h65.847l-6.649-1.262c4.164-.454 6.548-1.653 7.86-3.116l.392.113 48.903 2.208-7.482-25.107s11.267-47.642-12.403-49.774z" fill="#E6F3FF"/><path d="M244.803 394.151s-23-8.895-17.461-16.566c3.507-4.833 10.257 3.381 10.257 3.381s-8.832-11.633-1.199-15.14c7.987-3.672 12.264 9.727 12.264 9.727s-2.965-11.746 3.116-13.399c6.082-1.653 6.536 11.747 6.536 11.747s7.848-10.573 12.529-2.145c4.239 7.645-8.643 22.887-8.643 22.887m101.2 1.06s22.988-8.895 17.449-16.554c-3.495-4.845-10.257 3.382-10.257 3.382s8.894-11.633 1.198-15.141c-7.986-3.684-12.263 9.715-12.263 9.715s2.965-11.746-3.104-13.399c-6.069-1.653-6.548 11.746-6.548 11.746s-7.848-10.572-12.529-2.144c-4.239 7.645 8.643 22.899 8.643 22.899" fill="#00A4D6" opacity=".2"/><path d="M351.176 389.129H259.59l9.942-39.112 2.259-8.87 4.378-17.171h58.429l4.378 17.171 2.245 8.87 9.955 39.112z" fill="#558EF9"/><path d="M520.835 70.88v259.291a11.085 11.085 0 01-8.188 10.875c-.825.207-1.673.309-2.523.303H101.892a10.328 10.328 0 01-5.728-1.741 11.296 11.296 0 01-1.69-1.413 11.356 11.356 0 01-3.243-8.024V70.881a10.939 10.939 0 0110.661-11.179h408.282a10.937 10.937 0 0110.661 11.179z" fill="#2A589C"/><path d="M341.222 350.017h-71.69l2.259-8.87h67.185l2.246 8.87z" fill="#1E4B8E"/><path d="M386.314 399.942H224.44a7.04 7.04 0 01-6.504-9.733 7.03 7.03 0 016.504-4.335h161.874a7.036 7.036 0 014.978 2.054 7.03 7.03 0 012.063 4.974 7.04 7.04 0 01-7.041 7.04z" fill="#2A589C"/><path d="M520.835 70.894V294.44H91.231V70.894a10.926 10.926 0 0110.661-11.179h408.282a10.926 10.926 0 0110.661 11.179z" fill="#558EF9"/><path d="M305.364 327.105a10.407 10.407 0 01-7.326-3.054 10.405 10.405 0 01-3.045-7.33 10.41 10.41 0 0110.371-10.371 10.41 10.41 0 0110.384 10.371 10.42 10.42 0 01-10.384 10.384z" fill="#46A6D1"/><path d="M470.746 16.048a7.567 7.567 0 01-9.766 10.009 7.572 7.572 0 01-3.545-11.15 7.566 7.566 0 016.25-3.45 7.576 7.576 0 015.389 2.151 7.567 7.567 0 011.672 2.44z" fill="#AEF4FF"/><path d="M460.855 20.666l3.886 1.489 1.539-6.51" stroke="#fff" stroke-width="1.615" stroke-linecap="round" stroke-linejoin="round"/><path d="M68.053 105.855a2.788 2.788 0 11-2.788-2.788 2.76 2.76 0 011.07.209 2.77 2.77 0 011.72 2.579zm-39.175 219.47a2.789 2.789 0 11-2.776-2.788 2.773 2.773 0 012.776 2.788zM580.21 83.107a2.79 2.79 0 01-1.721 2.576 2.788 2.788 0 111.721-2.576zM84.569 14.282a.896.896 0 01-.883-.896V7.077a.895.895 0 111.779 0v6.309a.896.896 0 01-.896.896z" fill="#67C2EF"/><path d="M87.736 11.14h-6.309a.883.883 0 110-1.766h6.309a.883.883 0 010 1.766zM19.668 266.531h-2.246v-2.259a.883.883 0 00-.883-.883.89.89 0 00-.828.543.877.877 0 00-.068.34v2.246h-2.246a.896.896 0 000 1.779h2.246v2.284a.896.896 0 001.237.827.884.884 0 00.542-.827v-2.271h2.246a.894.894 0 00.923-.522.9.9 0 00-.222-1.038.894.894 0 00-.7-.219z" fill="#67C2EF"/><g opacity=".6" fill="#AEF4FF"><path opacity=".4" d="M24.576 81.681A21.978 21.978 0 1146.529 59.69a22.004 22.004 0 01-21.953 21.99zm0-40.55A18.584 18.584 0 1043.173 59.69a18.597 18.597 0 00-18.635-18.56h.038z"/><path opacity=".6" d="M37.988 59.702a1.11 1.11 0 011.16-1.085h1.905a1.123 1.123 0 011.123 1.11 1.123 1.123 0 01-1.123 1.124h-1.905a1.123 1.123 0 01-1.16-1.149zm-31 .026a1.11 1.11 0 011.11-1.11h1.918a1.123 1.123 0 011.11 1.122 1.123 1.123 0 01-1.11 1.11H8.111a1.123 1.123 0 01-1.123-1.122zM24.563 73.14a1.123 1.123 0 011.123 1.11v1.917a1.123 1.123 0 01-1.11 1.11 1.123 1.123 0 01-1.123-1.11v-1.905a1.123 1.123 0 011.11-1.123zm-.025-30.925a1.108 1.108 0 011.123 1.11v1.906a1.123 1.123 0 01-1.11 1.11 1.123 1.123 0 01-1.123-1.11v-1.905a1.11 1.11 0 011.11-1.11zm-9.475 27.001a1.111 1.111 0 010 1.577l-1.338 1.35a1.123 1.123 0 01-1.577 0 1.123 1.123 0 010-1.577l1.35-1.35a1.11 1.11 0 011.565 0zm21.902-21.954a1.123 1.123 0 010 1.577l-1.35 1.35a1.099 1.099 0 01-1.564 0 1.098 1.098 0 010-1.564l1.312-1.363a1.11 1.11 0 011.602 0zM15.05 50.227a1.123 1.123 0 01-1.577 0l-1.35-1.35a1.123 1.123 0 010-1.577 1.123 1.123 0 011.577 0l1.35 1.35a1.123 1.123 0 010 1.577zm21.94 21.89a1.11 1.11 0 01-1.576 0L34.1 70.78a1.123 1.123 0 01.362-1.82 1.111 1.111 0 011.216.243l1.35 1.337a1.123 1.123 0 01-.038 1.577z"/></g><path opacity=".6" d="M26.38 59.715a1.83 1.83 0 11-3.659.025 1.83 1.83 0 013.659-.025zm-1.83-2.284a.353.353 0 01-.353-.353v-9.286a.34.34 0 01.353-.353.353.353 0 01.354.353v9.286a.34.34 0 01-.354.353zm2.511 2.271a.366.366 0 01.353-.353h6.132a.353.353 0 110 .707h-6.132a.354.354 0 01-.353-.354z" fill="#AEF4FF"/><path opacity=".08" d="M479.767 144.791a46.582 46.582 0 00-73.468 54.959 46.585 46.585 0 01-14.608-36.541 46.577 46.577 0 0118.595-34.683 46.57 46.57 0 0169.456 16.265h.025z" fill="#fff"/><path d="M111.064 267.099l.366.328-.366-.328z" fill="#5FB0E7" opacity=".8"/><path d="M107.103 267.427l-.366-.328.366.328z" fill="#EBF8FF"/><path style="mix-blend-mode:multiply" opacity=".47" d="M281.19 59.766a5.69 5.69 0 01-.908.176 12.574 12.574 0 00-1.602-1.262c.651.11 1.308.177 1.968.202 1.362-.025.971.656.542.884z" fill="url(#paint0_linear)"/><defs><linearGradient id="paint0_linear" x1="278.68" y1="59.286" x2="281.594" y2="59.286" gradientUnits="userSpaceOnUse"><stop stop-color="#F7941E"/><stop offset="1" stop-color="#F7941E" stop-opacity="0"/></linearGradient></defs></svg>