<svg width="82" height="94" fill="none" xmlns="http://www.w3.org/2000/svg"><path d="M81.889 18.983L79.195 8.049C52.772 21.719 41.305 0 41.305 0S29.762 21.72 3.338 8.049L.595 18.983s4.253 5.469 4.253 8.507c0 3.038-.407 6.17-.435 9.225a85.77 85.77 0 001.502 17.857c1.368 6.904 3.818 13.553 7.762 19.41 4.195 6.234 10.562 10.01 16.858 13.804 1.14.686 2.293 1.368 3.485 1.96A63.67 63.67 0 0141.308 94s3.113-1.858 7.218-4.254c3.09-1.803 5.814-3.289 8.59-5.143 3.453-2.305 6.958-4.626 9.652-7.841a41.142 41.142 0 006.23-10.393 56.648 56.648 0 002.128-5.908 74.494 74.494 0 002.885-18.289c.155-4.203.07-8.411-.254-12.604-.051-.694-.134-1.396-.134-2.094-.004-3.022 4.266-8.491 4.266-8.491z" fill="#2A589C"/><path d="M41.297 5.951c3.646 4.242 10.585 9.99 21.444 9.99a36.854 36.854 0 0014.051-2.96l1.278 5.202c-1.642 2.332-3.979 6.198-3.979 9.287 0 .659.05 1.274.098 1.82 0 .18.031.364.043.544.318 4.06.401 8.135.251 12.205a71.29 71.29 0 01-2.744 17.422 53.461 53.461 0 01-1.992 5.54 37.704 37.704 0 01-5.688 9.503c-2.333 2.775-5.458 4.861-8.763 7.056l-.148.098c-2.016 1.345-4.058 2.521-6.222 3.768l-.102.059c-.68.39-1.374.79-2.082 1.203-2.188 1.275-4.108 2.407-5.351 3.137a71.066 71.066 0 00-5.802-3.254c-1.079-.537-2.149-1.176-3.243-1.831l-.278-.169c-6.065-3.646-11.793-7.092-15.49-12.584-3.414-5.073-5.849-11.173-7.229-18.124a82.653 82.653 0 01-1.407-17.097c.02-1.353.117-2.717.223-4.16.118-1.658.24-3.372.24-5.116 0-3.07-2.322-6.927-3.953-9.256l1.294-5.218c4.873 2.019 9.601 3.003 14.074 3.003 10.813 0 17.811-5.775 21.496-10.068h-.02zm.02-5.375L38.638 3.69c-3.482 4.05-9.57 8.876-18.819 8.876-4.002 0-8.283-.933-12.725-2.772l-3.78-1.568-.991 3.971-1.298 5.18-.392 1.567.921 1.322c2.078 2.967 3.317 5.668 3.317 7.233 0 1.564-.118 3.265-.231 4.861-.11 1.502-.208 2.913-.232 4.363A85.949 85.949 0 005.911 54.58c1.47 7.414 4.081 13.945 7.758 19.41 4.136 6.143 10.194 9.782 16.6 13.635l.282.173c1.152.69 2.29 1.364 3.481 1.96a67.518 67.518 0 015.508 3.09l1.82 1.136 1.846-1.09c1.211-.717 3.136-1.842 5.332-3.136l2.054-1.176.11-.067c2.219-1.274 4.312-2.477 6.425-3.893l.145-.094c3.529-2.352 6.85-4.575 9.507-7.735A41.262 41.262 0 0073.013 66.4a56.346 56.346 0 002.125-5.912A74.694 74.694 0 0078.023 42.2c.155-4.202.07-8.41-.255-12.604 0-.184-.027-.392-.043-.556v-.028a17.898 17.898 0 01-.086-1.525c0-1.568 1.247-4.285 3.336-7.253l.922-1.313-.393-1.568-1.278-5.199-.984-3.975-3.79 1.568a33.434 33.434 0 01-12.71 2.705c-9.308 0-15.341-4.755-18.768-8.742L41.301.596l.015-.02z" fill="#7FACFF"/><path d="M51.066 42.678v-5.332a9.844 9.844 0 00-2.352-6.453 9.715 9.715 0 00-7.425-3.458 9.846 9.846 0 00-9.825 9.911v5.332H28.72v21.17h25.09v-21.17h-2.744zM43.01 53.38v4.704h-3.313V53.38a2.83 2.83 0 01-1.098-2.258 2.8 2.8 0 012.804-2.767h.03a2.744 2.744 0 012.745 2.767 2.897 2.897 0 01-1.168 2.258zm3.352-10.703H35.777v-5.842c0-3.136 2.152-5.7 5.292-5.7 3.14 0 5.293 2.56 5.293 5.7v5.842z" fill="#FCFCFC"/></svg>