<svg width="156" height="118" fill="none" xmlns="http://www.w3.org/2000/svg"><path d="M98.856 35.91c1.816-6.994 2.47-10.391.327-18.838-6.83-26.83-38.747-17.584-42.617-2.543-1.816 7.012 4.251 13.878 7.394 17.184 3.142 3.307 33.606-.544 34.896 4.197z" fill="#3C3C3B"/><path d="M78.347 43.212l17.02-15.895 7.467 18.366 4.686 11.607-28.41 8.81-.763-22.888z" fill="#F2C799"/><path d="M76.621 56.636c6.085 8.865 16.767 4.596 34.424-5.322l12.243 2.27a22.014 22.014 0 0115.986 12.48l14.132 30.99-15.24 20.328h-88.92l7.175-50.718 20.2-10.028z" fill="#558EF9"/><path d="M88.374 73.258l-5.758-.364c-2.216 15.041-2.126 28.793 3.015 39.71l17.021-2.834a69.137 69.137 0 01-14.278-36.512z" fill="#F6667B"/><path d="M78.746 99.362a27.969 27.969 0 005.723 1.489 71.73 71.73 0 009.609.818c.636 0-3.506 3.887-4.923 4.069a15.08 15.08 0 01-5.45.109c-2.27-.364-5.903-.473-7.266-2.307-.944-1.272-.98-3.397-.09-4.033a3.27 3.27 0 012.397-.145z" fill="#F2C799"/><path d="M94.078 101.669l-15.295 4.232-14.987 8.956 27.43-.691c4.487 2.198 9.664 1.254 15.059 1.435a4.715 4.715 0 004.19-2.206 4.719 4.719 0 00.17-4.733c-2.925-5.359-9.7-5.558-16.567-6.993z" fill="#FFD2A1"/><path d="M113.352 102.631l-8.411 1.436a33.397 33.397 0 012.234 13.315h9.955l-3.778-14.751z" fill="#59D2FF"/><path d="M71.39 110.37l-8.81-40.182a4.614 4.614 0 00-4.342-3.524H4.777a2.761 2.761 0 00-2.761 3.524l8.81 40.182a4.614 4.614 0 004.287 3.524h53.515a2.77 2.77 0 002.282-1.056 2.759 2.759 0 00.48-2.468z" fill="#3C3C3B"/><path d="M66.739 113.894H13.224a4.614 4.614 0 01-4.287-3.524L.108 70.188a2.76 2.76 0 012.761-3.524h53.552a4.614 4.614 0 014.287 3.524l8.81 40.182a2.76 2.76 0 01-2.779 3.524z" fill="#575756"/><path d="M37.111 90.279a2.814 2.814 0 01-2.815 3.633 4.76 4.76 0 01-4.396-3.633 2.817 2.817 0 012.815-3.633 4.74 4.74 0 014.396 3.633z" fill="#80DAFC"/><path d="M104.941 117.382H16.584v-3.488h88.357v3.488z" fill="#575756"/><path d="M71.244 113.894h-54.66v3.488h54.66v-3.488z" fill="#3C3C3B"/><path d="M153.407 97.055l-23.034-1.018-17.021 6.558 3.778 14.75h34.896c4.687-2.561 4.614-9.845 1.381-20.29z" fill="#558EF9"/><path d="M88.392 73.258l-5.758-.364-2.326-11.317h9.628l-1.544 11.68z" fill="#F5415B"/><path d="M84.36 61.523l-8.139 10.1-3.633-13.188 5.85-5.958a8.447 8.447 0 005.921 9.046z" fill="#59D2FF"/><path d="M84.36 61.523l11.57 10.1 15.114-20.29-8.392-6.068c-.636 5.686-10.736 16.276-18.293 16.258z" fill="#59D2FF"/><path d="M65.849 38.144c2.125 4.578 7.557 15.895 11.626 16.694 3.05.671 6.244.11 8.883-1.562a17.839 17.839 0 006.394-7.466c1.471-2.852 2.997-4.16 3.179-7.266a35.5 35.5 0 00-1.035-8.956l-2.144-10.263a17.766 17.766 0 00-2.634-7.267 10.754 10.754 0 00-6.794-3.905c-2.652-.454-15.023 0-21.671 7.52-3.76 4.36-2.961 7.067 4.196 22.471z" fill="#FFD2A1"/><path d="M93.824 15.673a12.225 12.225 0 00-5.595-7.266 15.459 15.459 0 00-6.54-1.344c-6.085.249-12.151.855-18.165 1.816v8.956c11.19-.999 23.124-6.63 27.448 10.427 1.18-.6 2.87-1.58 4.05-2.198.002-3.498-.4-6.985-1.198-10.39z" fill="#3C3C3B"/><path d="M98.329 23.52c.345 4.106-.527 7.449-2.107 7.994-1.58.545-3.38-4.178-3.797-7.52-.418-3.343.454-5.214 2.307-5.45 1.853-.237 3.324 1.634 3.597 4.977z" fill="#FFD2A1"/><path d="M86.358 16.364c-4.27-1.817-7.557-4.633-12.171-5.032-.254 0-10.9 2.161-11.081 2.325-3.288 1.98-3.633 2.234-4.16 6.03 6.794 9.683 19.982 4.56 22.707 3.87l-2.325-.708c6.43-2.925 7.974-4.978 7.03-6.485z" fill="#3C3C3B"/><path opacity=".1" d="M120.473 91.932a7472.931 7472.931 0 01-6.068-16.93l6.994 13.06a15.636 15.636 0 003.797 5.232c3.415 2.67 12.715 2.344 15.658 6.903-3.778-2.906-9.791-3.124-13.479-2.58-3.687.546-7.992 2.871-11.535 4.052-3.542 1.18-7.575 1.38-10.899 2.506 2.016-1.071 14.532-4.977 15.75-8.828a5.46 5.46 0 00-.218-3.415z" fill="#1D1D1B"/></svg>