<svg width="159" height="110" fill="none" xmlns="http://www.w3.org/2000/svg"><path d="M6.703 105.885l-2.868-2.067 26.439-35.544 44.54-11.046C82.78 45.808 95.09 27.902 96.48 25.426c.32-1.568 4.186-2.85 51.221-13.772l.82 3.563c-17.318 4.027-45.2 10.69-49.03 12.08-1.319 2.37-5.916 9.371-22.075 32.64l-.374.552L32.34 71.428 6.703 105.885zm93.34-79.907a2.802 2.802 0 01-.374.945c.213-.272.343-.6.374-.945z" fill="#F27083"/><path d="M142.713 106.597H3.496V16.375H7.06v86.659h135.654v3.563z" fill="#558EF9"/><path d="M139.185 99.649l19.313 5.167L139.185 110V99.649zM10.462 19.92L5.278.59.093 19.92h10.37z" fill="#558EF9"/><path d="M32.001 92.897v4.134a5.398 5.398 0 01-10.794 0v-4.134a5.397 5.397 0 1110.794 0z" fill="url(#paint0_linear)" stroke="#89D6FF"/><path d="M53.986 79.98v15.393a7.464 7.464 0 11-14.927 0V79.98a7.464 7.464 0 1114.928 0z" fill="url(#paint1_linear)" stroke="#89D6FF"/><path d="M73.905 75.365v20.008a7.464 7.464 0 11-14.928 0V75.365a7.464 7.464 0 1114.928 0z" fill="url(#paint2_linear)" stroke="#89D6FF"/><path d="M93.806 70.626v24.747a7.464 7.464 0 11-14.928 0V70.626a7.464 7.464 0 1114.928 0z" fill="url(#paint3_linear)" stroke="#89D6FF"/><path d="M113.725 41.514v53.859a7.464 7.464 0 01-14.928 0V41.514a7.464 7.464 0 0114.928 0z" fill="url(#paint4_linear)" stroke="#89D6FF"/><path d="M133.643 32.606v62.767a7.464 7.464 0 11-14.927 0V32.606a7.463 7.463 0 1114.927 0z" fill="#F27083" stroke="#DE6779"/><defs><linearGradient id="paint0_linear" x1="-3949.88" y1="12632.2" x2="-3949.88" y2="12914" gradientUnits="userSpaceOnUse"><stop stop-color="#5FB5C9"/><stop offset="1" stop-color="#4FA3B5"/></linearGradient><linearGradient id="paint1_linear" x1="12583.8" y1="10647.6" x2="12865.5" y2="10647.6" gradientUnits="userSpaceOnUse"><stop stop-color="#5FB5C9"/><stop offset="1" stop-color="#4FA3B5"/></linearGradient><linearGradient id="paint2_linear" x1="12603.7" y1="12201" x2="12885.4" y2="12201" gradientUnits="userSpaceOnUse"><stop stop-color="#5FB5C9"/><stop offset="1" stop-color="#4FA3B5"/></linearGradient><linearGradient id="paint3_linear" x1="12623.6" y1="13796.5" x2="12905.3" y2="13796.5" gradientUnits="userSpaceOnUse"><stop stop-color="#5FB5C9"/><stop offset="1" stop-color="#4FA3B5"/></linearGradient><linearGradient id="paint4_linear" x1="12643.5" y1="23597" x2="12925.3" y2="23597" gradientUnits="userSpaceOnUse"><stop stop-color="#5FB5C9"/><stop offset="1" stop-color="#4FA3B5"/></linearGradient></defs></svg>