<svg width="110" height="111" fill="none" xmlns="http://www.w3.org/2000/svg"><path d="M55.54 2.208a53.052 53.052 0 00-37.996 90.387l37.708-37.3.288-53.087z" fill="#558EF9"/><path d="M17.544 94.29a1.696 1.696 0 01-1.187-.491A54.765 54.765 0 0155.353.547h.306a1.696 1.696 0 011.695 1.695l-.407 53.052a1.695 1.695 0 01-.491 1.204l-37.725 37.3c-.316.314-.742.49-1.187.492zm36.3-90.352a51.356 51.356 0 00-36.266 86.25l35.995-35.606.272-50.644z" fill="#fff"/><path d="M108.304 55.548A53.053 53.053 0 0055.54 2.208l-.288 53.086 53.052.254z" fill="#2A589C"/><path d="M108.304 57.244l-53.052-.254a1.694 1.694 0 01-1.204-.492 1.78 1.78 0 01-.492-1.204l.289-53.052a1.697 1.697 0 01.508-1.203 1.593 1.593 0 011.204-.492A54.73 54.73 0 01110 55.599a1.693 1.693 0 01-.492 1.187c-.325.305-.757.47-1.203.458zm-51.34-3.645l49.627.27A51.32 51.32 0 0057.236 3.973L56.964 53.6z" fill="#fff"/><path d="M55.252 55.294l37.3 37.708a52.898 52.898 0 0015.735-37.437l-53.035-.27z" fill="#F87386"/><path d="M92.57 94.68a1.695 1.695 0 01-1.204-.508L54.065 56.464a1.696 1.696 0 01-.356-1.848 1.696 1.696 0 011.56-1.051l53.052.288a1.69 1.69 0 011.203.509c.311.322.482.755.475 1.203a54.26 54.26 0 01-16.26 38.624c-.311.309-.73.485-1.17.491zM59.337 56.99l33.231 33.57a50.86 50.86 0 0014.005-33.316l-47.236-.254z" fill="#fff"/><path d="M17.544 92.595a53.03 53.03 0 0057.753 11.818A53.029 53.029 0 0092.57 93.002L55.252 55.294l-37.708 37.3z" fill="#5CB1C5"/><path d="M55.269 110.024h-.305A54.401 54.401 0 0116.34 93.782a1.695 1.695 0 010-2.408l37.708-37.3a1.51 1.51 0 011.204-.492c.447.006.874.189 1.187.508l37.3 37.725c.314.316.49.742.492 1.187a1.697 1.697 0 01-.509 1.204 54.402 54.402 0 01-38.453 15.818zm-35.317-17.43A51.1 51.1 0 0054.98 106.65h.289a51.045 51.045 0 0034.893-13.682l-34.91-35.3-35.3 34.927z" fill="#fff"/></svg>