<svg width="85" height="12" fill="none" xmlns="http://www.w3.org/2000/svg"><path d="M4.629 11.939c-1.147 0-2.098-.243-2.852-.729A3.847 3.847 0 01.196 9.242l2.371-1.38c.403.961 1.116 1.442 2.14 1.442.847 0 1.27-.243 1.27-.729 0-.32-.242-.578-.728-.775-.207-.082-.661-.222-1.364-.418-.992-.29-1.777-.693-2.356-1.21C.95 5.647.661 4.918.661 3.988c0-1.002.356-1.813 1.07-2.433.723-.62 1.622-.93 2.696-.93.91 0 1.716.212 2.418.635.703.424 1.24 1.039 1.612 1.845L6.132 4.468c-.34-.806-.904-1.21-1.689-1.21-.33 0-.584.068-.76.202a.631.631 0 00-.248.512c0 .237.124.439.372.604.259.166.755.357 1.488.574.527.155.951.3 1.271.434.32.134.672.33 1.054.589.383.248.667.573.853.976.186.393.279.858.279 1.395 0 1.065-.377 1.896-1.132 2.496-.754.6-1.751.899-2.991.899zM20.828.856v10.85h-2.76V5.863l-2.634 4.355h-.28l-2.619-4.34v5.828H9.761V.856h2.774l2.76 4.635L18.068.856h2.759zm8.342 10.85l-.465-1.565h-3.612l-.465 1.565h-3.007l3.58-10.85h3.38l3.58 10.85H29.17zm-3.364-3.952h2.186l-1.1-3.69-1.086 3.69zm12.802 3.952l-1.891-3.503h-.992v3.503H32.95V.856h4.34c1.106 0 2.03.357 2.775 1.07.754.702 1.131 1.596 1.131 2.681 0 .651-.165 1.25-.496 1.798-.33.538-.78.966-1.348 1.287l2.232 4.014h-2.976zm-2.883-8.292v2.433h1.534c.341.01.62-.098.837-.325.217-.228.326-.522.326-.884 0-.361-.109-.656-.326-.883a1.106 1.106 0 00-.837-.341h-1.534zM49.775.856v2.682h-2.682v8.168H44.32V3.538h-2.682V.856h8.138zm.234 7.41v-2.45h6.045v2.45H50.01zm10.525.759h3.735v2.681h-6.51V.856h2.775v8.169zm11.67 2.681l-.466-1.565h-3.611l-.465 1.565h-3.007l3.58-10.85h3.38l3.58 10.85h-2.992zM68.84 7.754h2.185l-1.1-3.69-1.085 3.69zm13.995-1.659c.91.538 1.364 1.349 1.364 2.434 0 .96-.33 1.73-.992 2.31-.661.578-1.545.867-2.65.867h-4.573V.856h4.278c1.085 0 1.953.28 2.604.837.65.548.976 1.297.976 2.248 0 .91-.335 1.627-1.007 2.154zm-2.65-2.759h-1.427v1.705h1.426a.907.907 0 00.62-.217c.176-.155.264-.367.264-.635 0-.259-.083-.465-.248-.62a.892.892 0 00-.636-.233zm.294 5.89c.279 0 .506-.082.682-.248a.903.903 0 00.263-.666c0-.28-.088-.501-.263-.667-.176-.165-.403-.248-.682-.248h-1.72v1.83h1.72z" fill="#E4C107"/></svg>