<svg width="64" height="122" fill="none" xmlns="http://www.w3.org/2000/svg"><path d="M.013 52.715H57.18a6.435 6.435 0 00-.556-1.994c-1.45-3.431-6.75-10.383-25.839-13.474l-9.412-1.943S-.479 35.29.013 52.715z" fill="#F27083"/><path d="M18.963 52.715H57.18a6.435 6.435 0 00-.556-1.994 8.63 8.63 0 00-4.529 0l-2.334.606H24.893c-4.845-.038-5.93 1.388-5.93 1.388z" fill="#17A59E"/><path d="M28.4 41.827a3.015 3.015 0 002.095-.67 3.116 3.116 0 001.173-1.778 11.8 11.8 0 01.505-1.653 6.75 6.75 0 01.82-1.59l-9.627-10.434S22.32 33.5 20.603 36.136c0 0-.555 5.224 7.798 5.69z" fill="#FFCCB0"/><path d="M25.953 31.695s1.174 5.956 4.542 9.463a3.117 3.117 0 001.174-1.779 11.76 11.76 0 01.504-1.653 27.975 27.975 0 01-6.22-6.03z" fill="#F2A181"/><path d="M52.537 12.139s.353 10.472-4.34 10.32c-4.694-.15 0-11.556 0-11.556l4.34 1.236z" fill="#D3977F"/><path d="M24.527 23.696a20.66 20.66 0 00-.088 3.974c.014.145.04.289.076.43.018.144.048.288.088.428 1.135 4.492 6.813 10.826 10.813 11.356.512.037 1.027.037 1.539 0 5.564-.253 8.832-4.807 10.699-9.652l.19-.505a44.535 44.535 0 002.333-10.762c0-.379.29-4.504-.517-5.74-.807-1.237-11.872-2.612-12.1-2.638-.227-.025-10.787.745-10.787.745a112.832 112.832 0 00-2.246 12.364z" fill="#FFCCB0"/><path d="M54.707 8.896s-.34 8.063-13.576 4.833c-3.634-.883-6.838-1.704-8.642-.732-2.7 8.516-2.789 12.617-3.786 12.264-1.198-.43 2.044-7.495-2.094-6.725-3.167.58.139 8.377.139 8.377s-3.848.505-3.962-1.261c0-1.073-.177-16.314 2.435-19.935 2.612-3.621 5.753-3.457 5.753-3.457S34.28-.541 42.09 1.743C49.9 4.026 54 1.15 53.988 1.377a15.695 15.695 0 01.719 7.52z" fill="#D3977F"/><path d="M0 52.702s4.378 29.94 23.833 45.043a175.521 175.521 0 0115.305 13.992l.277-.24c.498.396.925.874 1.262 1.413.517.934 1.047 4.391 2.031 4.782.153.048.31.086.467.113.42.327.914.544 1.438.631a9.187 9.187 0 003.092-.315c.422.429.902.799 1.425 1.098a30.446 30.446 0 003.722 1.98c1.11.354 1.262 0 1.047-.694-.214-.693-2.334-1.867-3.09-2.46a11.814 11.814 0 01-2.524-3.305c-.467-1.022-.467-1.59 0-1.59s1.892.883 3.003 1.11c1.11.227 1.64-.063 1.097-.694a8.644 8.644 0 00-3.86-2.99 7.567 7.567 0 01-3.621-1.451 11.36 11.36 0 01-2.032-2.523l.442-.391s-12.012-16.756-21.007-29.7l-.593-.808c-5.047-10.258-5.59-18.396-5.564-21.575a3.09 3.09 0 011.539-1.476L0 52.702z" fill="#5FB0E7"/><path d="M42.96 104.81a21.124 21.124 0 003.205 4.315 7.575 7.575 0 003.621 1.464 8.67 8.67 0 013.874 2.965c.53.643 0 .933-1.11.706-1.111-.227-2.524-1.11-3.003-1.11-.48 0-.467.568 0 1.59a11.442 11.442 0 002.523 3.305c.757.581 2.851 1.754 3.091 2.448.24.694 0 1.047-1.047.706a30.62 30.62 0 01-3.785-1.98 6.782 6.782 0 01-1.413-1.098 9.187 9.187 0 01-3.091.315 3.449 3.449 0 01-1.451-.631c-.152 0-.316-.063-.455-.113-.996-.404-1.514-3.848-2.044-4.769a45.188 45.188 0 00-4.34-4.404l5.426-3.709z" fill="#FFCCB0"/><path d="M0 52.702l7.23-4.92 3.696 1.779c2.322-1.022 6.309-2.524 6.309-2.524l1.74 5.665a3.117 3.117 0 00-1.526 1.477c0 3.192.467 11.355 5.552 21.587.201.278.403.517.605.807 8.983 12.933 21.007 29.688 21.007 29.688l-5.147 4.517s-7.697-6.914-14.371-13.02c-2.246-2.057-9.185-8.744-13.349-16.403A168.435 168.435 0 010 52.702z" fill="#F27083"/><path d="M47.59 56.122h.215a4.776 4.776 0 00-.429.504c-.214.227-.075.366-.075.366.277.303.517.265.87.253.24-.052.466-.16.656-.316a.983.983 0 00.82.177c.341 0 .745-.366 1.262-.909a.278.278 0 000 .265 1.035 1.035 0 00.896.24 2.826 2.826 0 001.375-1.01c.19-.189.454-.504.732-.845l.706-.48a1.98 1.98 0 011.085-.352c2.713 0 3.924-1.262 7.243-1.262H47.894h.088c.302.082.61.14.921.177h-.076l-.555.656c-.605.731-1.4 1.678-1.552 1.83-.151.15-.075.39-.075.39a.946.946 0 00.946.316z" fill="#5FB0E7"/><path d="M48.234 56.121h.202a4.767 4.767 0 00-.429.505c-.202.227-.076.366-.076.366.278.303.518.265.884.252.235-.054.456-.162.643-.315a.996.996 0 00.82.177c.34 0 .745-.366 1.262-.909a.277.277 0 000 .265 1.035 1.035 0 00.896.24 2.89 2.89 0 001.388-1.01c.189-.189.441-.504.719-.845.277-.34.504-.353.719-.48a1.93 1.93 0 011.072-.352c2.7 0 3.911-1.262 7.23-1.262 0 0-7.76-3.785-12.44-1.085a15.47 15.47 0 01-1.969.202c-1.362 0-.971.706-.542.933.297.084.601.143.908.177h-.076l-.555.656c-.605.732-1.4 1.678-1.552 1.83-.151.15-.075.39-.075.39a.959.959 0 00.971.265z" fill="#FFCCB0"/><path style="mix-blend-mode:multiply" opacity=".47" d="M48.701 52.765c.298.084.602.143.909.177a12.54 12.54 0 011.602-1.262c-.651.11-1.309.177-1.968.202-1.363-.025-.972.656-.543.883z" fill="url(#paint0_linear)"/><defs><linearGradient id="paint0_linear" x1="51.212" y1="52.286" x2="48.297" y2="52.286" gradientUnits="userSpaceOnUse"><stop stop-color="#F7941E"/><stop offset="1" stop-color="#F7941E" stop-opacity="0"/></linearGradient></defs></svg>