<svg width="64" height="122" fill="none" xmlns="http://www.w3.org/2000/svg"><path d="M63.879 52.715H6.712c.076-.69.264-1.363.555-1.994 1.451-3.431 6.75-10.383 25.84-13.474l9.412-1.943s21.852-.013 21.36 17.41z" fill="#2DC1BD"/><path d="M44.928 52.715H6.712c.076-.69.264-1.363.555-1.994a8.63 8.63 0 014.53 0l2.334.606h24.867c4.845-.038 5.93 1.388 5.93 1.388z" fill="#17A59E"/><path d="M35.491 41.827a3.016 3.016 0 01-2.094-.669 3.116 3.116 0 01-1.174-1.779 11.794 11.794 0 00-.505-1.653 6.748 6.748 0 00-.82-1.59l9.627-10.434s1.047 7.797 2.763 10.434c0 0 .555 5.224-7.797 5.69z" fill="#FFCCB0"/><path d="M37.938 31.695s-1.173 5.955-4.542 9.463a3.117 3.117 0 01-1.173-1.78 11.794 11.794 0 00-.505-1.652 27.975 27.975 0 006.22-6.03z" fill="#F2A181"/><path d="M11.355 12.139s-.354 10.472 4.34 10.32c4.694-.15 0-11.556 0-11.556l-4.34 1.236z" fill="#2C1E56"/><path d="M39.364 23.696a20.66 20.66 0 01.089 3.974c-.014.145-.04.289-.076.43a2.88 2.88 0 01-.088.428c-1.136 4.492-6.814 10.826-10.813 11.356-.512.037-1.027.037-1.54 0-5.563-.253-8.831-4.807-10.698-9.652l-.19-.505a44.535 44.535 0 01-2.334-10.762c0-.379-.29-4.504.518-5.74.807-1.237 11.872-2.612 12.1-2.638.226-.025 10.786.745 10.786.745a112.832 112.832 0 012.246 12.364z" fill="#FFCCB0"/><path d="M9.185 8.897s.34 8.062 13.575 4.832c3.634-.883 6.839-1.703 8.643-.732 2.7 8.517 2.788 12.617 3.785 12.264 1.199-.43-2.044-7.495 2.095-6.725 3.166.58-.14 8.377-.14 8.377s3.849.505 3.962-1.261c0-1.073.177-16.314-2.435-19.935-2.611-3.62-5.753-3.457-5.753-3.457s-3.306-2.8-11.115-.517c-7.81 2.283-11.91-.593-11.898-.366a15.696 15.696 0 00-.72 7.52z" fill="#2C1E56"/><path d="M63.892 52.702s-4.379 29.94-23.834 45.043a175.521 175.521 0 00-15.304 13.992l-.278-.24a5.607 5.607 0 00-1.261 1.413c-.518.934-1.047 4.391-2.032 4.782a3.566 3.566 0 01-.466.113 3.19 3.19 0 01-1.439.631 9.187 9.187 0 01-3.09-.315 6.602 6.602 0 01-1.427 1.098 30.446 30.446 0 01-3.722 1.98c-1.11.354-1.261 0-1.047-.694.215-.693 2.334-1.867 3.091-2.46a11.814 11.814 0 002.524-3.305c.467-1.022.467-1.59 0-1.59s-1.893.883-3.003 1.11c-1.11.227-1.64-.063-1.098-.694a8.644 8.644 0 013.861-2.99 7.567 7.567 0 003.621-1.451 11.36 11.36 0 002.031-2.523l-.441-.391s12.011-16.756 21.007-29.7l.593-.808c5.047-10.258 5.59-18.396 5.564-21.575a3.09 3.09 0 00-1.54-1.476l17.69.05z" fill="#5FB0E7"/><path d="M20.931 104.81a21.124 21.124 0 01-3.205 4.315 7.563 7.563 0 01-3.62 1.463 8.684 8.684 0 00-3.874 2.965c-.53.644 0 .934 1.11.707 1.11-.227 2.524-1.11 3.003-1.11.48 0 .467.567 0 1.589a11.435 11.435 0 01-2.523 3.306c-.757.58-2.852 1.754-3.091 2.448-.24.694 0 1.047 1.047.706a30.49 30.49 0 003.785-1.981 6.809 6.809 0 001.413-1.097 9.213 9.213 0 003.091.315 3.449 3.449 0 001.451-.631c.151 0 .316-.063.454-.113.997-.404 1.514-3.848 2.044-4.769a45.076 45.076 0 014.34-4.404l-5.425-3.709z" fill="#FFCCB0"/><path d="M63.892 52.703l-7.23-4.921-3.697 1.779c-2.321-1.022-6.308-2.523-6.308-2.523l-1.741 5.665c.666.298 1.206.82 1.527 1.476 0 3.192-.467 11.355-5.552 21.587-.202.278-.404.517-.605.808-8.984 12.932-21.008 29.687-21.008 29.687l5.148 4.517s7.696-6.914 14.37-13.02c2.246-2.057 9.186-8.744 13.35-16.403a168.434 168.434 0 0011.746-28.653z" fill="#2DC1BD"/><path d="M16.3 56.121h-.214c.155.159.298.327.43.505.214.227.075.366.075.366-.278.303-.517.265-.87.252a1.54 1.54 0 01-.657-.315.984.984 0 01-.82.177c-.34 0-.744-.366-1.261-.909a.279.279 0 010 .265 1.035 1.035 0 01-.896.24 2.826 2.826 0 01-1.376-1.01 12.488 12.488 0 01-.731-.845l-.707-.48a1.98 1.98 0 00-1.085-.352c-2.712 0-3.924-1.262-7.242-1.262h15.052-.088c-.303.081-.61.14-.921.176h.075l.556.657c.605.731 1.4 1.678 1.551 1.829.152.151.076.391.076.391a.946.946 0 01-.946.316z" fill="#5FB0E7"/><path d="M15.657 56.121h-.201c.154.159.297.327.428.505.202.227.076.366.076.366-.277.303-.517.265-.883.252a1.579 1.579 0 01-.643-.315.996.996 0 01-.82.177c-.341 0-.745-.366-1.262-.909a.277.277 0 010 .265 1.035 1.035 0 01-.896.24 2.89 2.89 0 01-1.388-1.01c-.19-.189-.441-.504-.72-.845-.277-.34-.504-.353-.718-.48a1.93 1.93 0 00-1.073-.352c-2.7 0-3.91-1.262-7.23-1.262 0 0 7.76-3.785 12.441-1.085.651.109 1.309.176 1.968.202 1.363 0 .972.706.543.933a5.704 5.704 0 01-.909.177h.076l.555.656c.606.732 1.4 1.678 1.552 1.83.152.15.076.39.076.39a.959.959 0 01-.972.265z" fill="#FFCCB0"/><path style="mix-blend-mode:multiply" opacity=".47" d="M15.19 52.765a5.715 5.715 0 01-.908.177 12.548 12.548 0 00-1.602-1.262c.65.11 1.308.177 1.968.202 1.362-.025.971.656.542.883z" fill="url(#paint0_linear)"/><defs><linearGradient id="paint0_linear" x1="12.68" y1="52.286" x2="15.594" y2="52.286" gradientUnits="userSpaceOnUse"><stop stop-color="#F7941E"/><stop offset="1" stop-color="#F7941E" stop-opacity="0"/></linearGradient></defs></svg>